<svg version="1.0" xmlns="http://www.w3.org/2000/svg" width="1800.000000pt" height="711.000000pt" viewBox="0 0 1800.000000 711.000000" preserveAspectRatio="xMidYMid meet" style="width: 1802.400146px; height: auto;"> <g transform="translate(0.000000,711.000000) scale(0.100000,-0.100000)" fill="#000000" stroke="none"> <path d="M7743 6392 c-54 -22 -90 -57 -114 -109 -25 -54 -24 -104 2 -155 42 -83 86 -111 177 -112 79 0 127 23 167 82 21 31 25 48 25 112 0 75 0 76 -42 122 -43 46 -106 79 -151 77 -12 0 -41 -8 -64 -17z"></path> <path d="M8169 6383 c-78 -40 -108 -88 -109 -175 0 -60 3 -71 33 -109 53 -70 76 -82 156 -83 63 0 75 3 113 30 135 95 114 271 -41 346 -51 25 -89 22 -152 -9z"></path> <path d="M9279 6383 c-77 -40 -108 -89 -109 -172 0 -75 19 -113 82 -163 37 -29 47 -32 109 -32 60 0 74 4 110 29 57 40 88 97 89 160 0 84 -44 148 -133 188 -54 24 -84 22 -148 -10z"></path> <path d="M9731 6389 c-87 -41 -115 -87 -115 -183 0 -62 3 -76 26 -106 51 -67 83 -83 165 -83 71 0 74 1 120 40 62 52 91 127 73 188 -19 64 -57 112 -113 140 -61 30 -98 31 -156 4z"></path> <path d="M15797 6393 c-90 -30 -142 -127 -123 -228 8 -39 19 -59 56 -96 38 -38 54 -47 95 -52 99 -13 181 29 216 110 46 108 2 216 -109 264 -52 23 -72 23 -135 2z"></path> <path d="M16234 6390 c-111 -52 -153 -164 -101 -270 13 -27 39 -57 65 -74 38 -27 51 -30 113 -30 62 1 74 4 106 31 68 54 78 76 78 162 0 75 -2 80 -36 122 -25 30 -51 49 -85 62 -62 22 -89 21 -140 -3z"></path> <path d="M9289 5937 c-36 -17 -58 -36 -91 -81 -24 -33 -28 -48 -28 -104 0 -99 52 -166 150 -190 158 -38 294 134 219 278 -47 89 -165 135 -250 97z"></path> <path d="M9721 5927 c-25 -12 -58 -39 -75 -60 -27 -34 -30 -45 -31 -110 0 -83 23 -132 78 -166 116 -71 250 -26 298 101 21 56 21 59 4 112 -38 122 -164 178 -274 123z"></path> <path d="M15805 5940 c-3 -5 -14 -10 -24 -10 -28 0 -89 -66 -100 -108 -24 -85 -10 -152 44 -206 154 -154 403 16 316 216 -22 51 -52 80 -105 102 -43 18 -121 21 -131 6z"></path> <path d="M16230 5933 c-170 -73 -155 -315 22 -367 75 -22 137 -6 194 51 33 34 44 53 50 89 16 106 -18 179 -101 219 -60 28 -113 31 -165 8z"></path> <path d="M4491 5487 c-94 -19 -151 -91 -151 -190 0 -65 9 -85 59 -140 88 -96 255 -64 311 58 67 147 -60 305 -219 272z"></path> <path d="M4925 5485 c-104 -27 -158 -115 -141 -229 9 -56 65 -122 121 -142 206 -72 357 176 200 329 -42 41 -118 59 -180 42z"></path> <path d="M5357 5484 c-171 -53 -183 -294 -19 -365 151 -65 306 64 270 223 -14 59 -79 132 -126 141 -16 3 -40 8 -53 11 -13 2 -45 -2 -72 -10z"></path> <path d="M5815 5488 c-83 -22 -155 -110 -155 -190 1 -71 64 -160 132 -185 83 -30 182 1 230 72 24 35 27 50 28 117 l0 77 -48 49 c-34 35 -59 51 -86 56 -20 4 -43 9 -49 11 -7 1 -30 -2 -52 -7z"></path> <path d="M14478 5484 c-60 -18 -110 -70 -131 -134 -15 -45 -15 -54 -1 -102 19 -63 54 -104 112 -129 130 -57 272 35 272 176 0 82 -64 175 -129 188 -16 3 -39 8 -52 11 -13 3 -45 -2 -71 -10z"></path> <path d="M14921 5484 c-147 -46 -189 -243 -72 -335 100 -79 222 -59 299 48 30 44 31 150 2 198 -27 43 -77 81 -120 89 -19 4 -42 9 -50 11 -8 1 -35 -3 -59 -11z"></path> <path d="M16295 5495 c-5 -2 -29 -9 -52 -15 -106 -27 -161 -153 -114 -262 22 -51 52 -80 105 -102 54 -22 99 -20 159 9 84 40 118 114 103 219 -9 58 -76 130 -131 140 -20 4 -42 9 -48 11 -7 2 -16 2 -22 0z"></path> <path d="M1613 5482 c-30 -10 -84 -61 -105 -99 -11 -19 -18 -52 -18 -87 0 -109 87 -195 198 -196 150 -1 245 177 161 300 -47 68 -71 82 -148 86 -36 2 -76 0 -88 -4z"></path> <path d="M2044 5477 c-16 -8 -46 -33 -66 -56 -127 -148 27 -372 213 -310 65 22 139 119 139 183 0 49 -35 119 -78 154 -37 30 -50 35 -110 39 -44 2 -78 -1 -98 -10z"></path> <path d="M3385 5482 c-33 -11 -59 -34 -93 -81 -27 -36 -32 -53 -32 -98 0 -199 237 -275 357 -115 29 38 33 51 33 104 0 39 -6 71 -17 91 -26 45 -82 94 -116 101 -37 7 -105 6 -132 -2z"></path> <path d="M3823 5480 c-47 -15 -109 -90 -116 -142 -21 -161 114 -278 261 -225 66 24 132 117 132 185 0 48 -37 118 -81 152 -33 27 -50 33 -102 36 -34 2 -76 -1 -94 -6z"></path> <path d="M6235 5483 c-32 -9 -83 -52 -104 -89 -15 -26 -21 -53 -21 -98 0 -53 4 -69 29 -102 37 -51 58 -69 100 -83 130 -43 261 53 261 192 0 44 -5 61 -29 93 -54 74 -72 85 -147 89 -38 2 -78 1 -89 -2z"></path> <path d="M7293 5479 c-89 -26 -149 -159 -111 -246 61 -141 222 -177 326 -73 77 76 76 197 -3 275 -53 54 -126 69 -212 44z"></path> <path d="M7745 5483 c-11 -3 -37 -19 -57 -35 -95 -74 -100 -205 -12 -291 53 -53 138 -72 200 -44 93 40 124 87 124 184 0 61 -4 75 -29 109 -41 58 -75 76 -145 80 -34 1 -70 0 -81 -3z"></path> <path d="M8185 5483 c-32 -9 -83 -52 -104 -89 -15 -26 -21 -53 -21 -98 0 -53 4 -69 28 -102 37 -50 56 -65 101 -81 131 -46 261 49 261 189 0 43 -6 61 -32 99 -17 26 -45 55 -61 64 -30 18 -135 29 -172 18z"></path> <path d="M8826 5480 c-61 -19 -126 -114 -126 -183 0 -100 98 -197 200 -197 100 0 199 97 200 196 0 50 -33 115 -76 150 -38 32 -52 37 -106 40 -35 2 -76 -1 -92 -6z"></path> <path d="M9295 5483 c-35 -10 -86 -55 -106 -94 -12 -25 -19 -59 -19 -97 0 -49 5 -66 29 -98 41 -57 61 -71 114 -85 88 -24 186 21 228 103 31 61 23 144 -17 195 -50 61 -75 75 -145 78 -35 2 -73 1 -84 -2z"></path> <path d="M9733 5483 c-35 -7 -102 -80 -114 -126 -52 -195 174 -339 319 -203 43 40 62 86 62 148 0 59 -20 102 -68 145 -45 40 -113 53 -199 36z"></path> <path d="M10175 5479 c-88 -25 -150 -161 -113 -246 48 -110 160 -160 261 -118 132 55 163 221 61 321 -55 53 -126 68 -209 43z"></path> <path d="M10625 5483 c-42 -11 -100 -70 -118 -119 -22 -61 -21 -89 2 -139 44 -98 161 -150 247 -112 93 40 127 91 126 187 0 59 -4 74 -28 105 -44 59 -78 77 -147 81 -34 1 -71 0 -82 -3z"></path> <path d="M11573 5469 c-59 -29 -93 -78 -100 -142 -7 -70 10 -128 50 -167 61 -59 142 -74 219 -41 132 58 159 221 53 324 -54 52 -147 63 -222 26z" class=""></path> <path d="M12033 5480 c-64 -20 -123 -104 -123 -176 0 -142 131 -238 260 -191 94 34 136 99 128 202 -6 68 -27 105 -80 145 -35 26 -132 36 -185 20z"></path> <path d="M12476 5480 c-65 -20 -125 -109 -126 -183 -1 -129 152 -234 266 -184 91 39 124 89 124 186 0 59 -4 73 -29 107 -15 22 -41 48 -56 58 -32 21 -134 30 -179 16z"></path> <path d="M12925 5483 c-31 -9 -83 -52 -105 -88 -15 -24 -20 -50 -20 -101 0 -68 1 -71 44 -120 78 -89 184 -99 279 -24 15 12 36 41 47 65 38 83 20 164 -53 233 -30 29 -41 33 -103 37 -38 2 -78 1 -89 -2z"></path> <path d="M15355 5483 c-30 -8 -83 -52 -105 -88 -30 -48 -28 -154 3 -200 55 -81 156 -117 234 -83 145 63 177 225 66 331 -44 41 -127 58 -198 40z"></path> <path d="M15793 5483 c-34 -6 -109 -87 -117 -124 -16 -83 0 -153 49 -200 60 -59 139 -74 217 -40 129 56 158 219 56 320 -47 48 -114 62 -205 44z"></path> <path d="M1635 5033 c-36 -6 -97 -53 -124 -97 -27 -43 -28 -134 -4 -179 29 -53 46 -69 98 -93 64 -31 99 -30 164 2 133 67 151 240 34 331 -39 31 -105 45 -168 36z"></path> <path d="M2074 5030 c-44 -10 -89 -44 -115 -87 -31 -49 -32 -152 -4 -201 25 -42 94 -88 146 -97 84 -14 178 44 213 133 21 55 20 80 -4 135 -43 97 -134 142 -236 117z"></path> <path d="M3403 5031 c-18 -5 -49 -21 -68 -35 -116 -88 -95 -270 38 -332 65 -30 99 -30 162 0 79 37 115 94 115 181 0 127 -120 217 -247 186z"></path> <path d="M3844 5031 c-44 -11 -89 -45 -115 -88 -18 -29 -23 -51 -22 -103 0 -88 27 -131 110 -177 63 -35 151 -22 211 31 33 29 72 109 72 146 0 60 -45 138 -99 171 -33 20 -114 30 -157 20z"></path> <path d="M4478 5031 c-43 -9 -68 -29 -109 -85 -25 -34 -29 -48 -29 -107 0 -61 3 -72 33 -111 95 -125 268 -105 341 39 37 74 5 184 -69 235 -44 30 -108 41 -167 29z"></path> <path d="M4928 5033 c-29 -3 -50 -16 -87 -52 -42 -41 -50 -55 -56 -99 -14 -102 24 -178 108 -218 62 -28 98 -30 152 -5 57 26 100 75 119 135 16 50 16 56 -1 106 -34 99 -117 145 -235 133z"></path> <path d="M6255 5033 c-37 -6 -97 -53 -124 -97 -31 -49 -29 -144 3 -194 30 -48 51 -65 104 -85 53 -21 87 -21 133 1 86 42 129 104 129 187 -1 122 -114 209 -245 188z"></path> <path d="M6692 5033 c-22 -3 -48 -20 -81 -53 -43 -43 -50 -56 -56 -103 -13 -101 28 -177 116 -216 50 -23 85 -26 126 -10 58 22 101 60 127 115 31 64 31 69 10 131 -35 105 -120 153 -242 136z"></path> <path d="M7775 5034 c-11 -3 -29 -7 -40 -9 -54 -11 -124 -114 -125 -181 0 -42 32 -113 67 -146 15 -14 51 -34 80 -44 51 -18 54 -18 107 0 94 32 136 91 136 191 0 83 -23 125 -92 168 -25 16 -101 28 -133 21z"></path> <path d="M8205 5033 c-37 -6 -97 -53 -124 -97 -32 -52 -29 -149 7 -201 30 -44 117 -95 163 -95 32 0 105 31 135 58 36 31 64 97 64 149 -1 120 -115 207 -245 186z"></path> <path d="M9315 5033 c-36 -6 -97 -53 -124 -97 -16 -25 -21 -50 -21 -97 1 -83 32 -132 109 -171 63 -32 101 -35 152 -10 86 42 129 104 129 187 -1 122 -113 208 -245 188z"></path> <path d="M9752 5033 c-22 -3 -48 -20 -81 -53 -43 -43 -50 -56 -56 -103 -13 -101 28 -177 116 -216 59 -27 95 -26 158 5 57 29 92 72 112 141 10 36 9 49 -6 90 -38 104 -125 152 -243 136z"></path> <path d="M11170 5033 c-36 -7 -77 -40 -111 -86 -25 -35 -29 -49 -29 -108 0 -61 3 -72 33 -111 37 -48 105 -87 155 -87 18 -1 52 8 75 18 156 71 170 262 27 354 -27 17 -110 28 -150 20z"></path> <path d="M11613 5033 c-50 -7 -129 -88 -138 -142 -17 -104 22 -187 110 -227 61 -29 93 -30 149 -5 59 27 100 73 119 132 16 48 16 53 -3 106 -11 31 -27 64 -37 75 -44 48 -121 72 -200 61z" class=""></path> <path d="M12938 5031 c-43 -9 -68 -28 -109 -85 -25 -33 -29 -48 -29 -103 0 -93 41 -153 128 -186 55 -22 84 -21 135 2 149 68 171 254 41 343 -43 29 -107 40 -166 29z"></path> <path d="M13389 5030 c-44 -8 -91 -40 -121 -82 -18 -26 -22 -46 -23 -103 0 -93 31 -145 108 -181 62 -28 98 -30 152 -5 142 65 170 239 53 334 -46 37 -103 50 -169 37z"></path> <path d="M14045 5031 c-67 -14 -118 -63 -139 -136 -29 -97 25 -203 120 -238 62 -22 85 -22 138 2 112 52 156 164 103 271 -38 77 -132 120 -222 101z"></path> <path d="M14490 5033 c-45 -6 -108 -57 -131 -107 -47 -104 -2 -218 106 -267 50 -23 78 -24 139 -2 34 12 60 32 85 62 34 41 35 47 36 120 0 63 -4 81 -22 107 -50 70 -119 98 -213 87z"></path> <path d="M15813 5033 c-50 -6 -129 -87 -138 -142 -19 -113 31 -204 129 -235 213 -67 355 221 171 345 -41 28 -101 40 -162 32z"></path> <path d="M16260 5033 c-104 -13 -180 -159 -136 -265 28 -67 114 -127 181 -128 47 0 127 43 160 86 27 35 30 46 30 114 0 61 -4 81 -22 106 -50 70 -119 98 -213 87z"></path> <path d="M1594 4561 c-71 -39 -104 -96 -104 -180 0 -52 4 -65 33 -103 97 -128 253 -117 340 24 25 41 23 131 -5 177 -29 47 -43 61 -84 83 -44 24 -138 23 -180 -1z"></path> <path d="M2023 4551 c-68 -49 -87 -85 -87 -163 0 -59 4 -73 29 -109 94 -133 277 -112 346 38 24 53 24 87 -2 143 -38 85 -93 120 -187 120 -49 0 -66 -5 -99 -29z"></path> <path d="M3365 4563 c-68 -36 -105 -99 -105 -178 0 -145 161 -242 285 -172 21 12 54 42 72 65 29 38 33 51 33 103 0 84 -37 147 -107 183 -41 21 -138 20 -178 -1z"></path> <path d="M3799 4556 c-19 -13 -48 -41 -64 -61 -24 -32 -28 -47 -29 -106 0 -60 3 -73 29 -110 76 -107 214 -120 307 -27 25 25 58 102 58 135 0 32 -33 109 -58 136 -54 60 -178 77 -243 33z"></path> <path d="M4437 4559 c-20 -11 -51 -38 -67 -61 -26 -35 -30 -50 -30 -105 0 -121 76 -203 190 -203 173 0 260 194 148 330 -50 60 -166 79 -241 39z"></path> <path d="M4885 4562 c-78 -46 -112 -116 -100 -209 5 -40 15 -63 37 -89 109 -124 292 -85 343 72 15 47 15 54 -1 100 -20 60 -44 91 -92 121 -47 28 -142 31 -187 5z"></path> <path d="M6205 4557 c-21 -12 -52 -40 -67 -62 -23 -33 -27 -51 -28 -103 0 -91 29 -141 108 -181 96 -49 212 -8 264 93 44 86 5 203 -83 254 -52 30 -140 30 -194 -1z"></path> <path d="M6638 4548 c-67 -47 -83 -79 -83 -164 1 -65 4 -74 34 -113 105 -132 290 -97 347 65 18 52 18 52 -7 115 -21 54 -32 69 -74 97 -42 27 -59 32 -110 32 -52 0 -67 -5 -107 -32z"></path> <path d="M7698 4547 c-49 -38 -88 -106 -88 -157 0 -19 11 -58 24 -87 64 -137 248 -153 337 -30 26 35 29 48 29 112 0 64 -3 77 -29 112 -45 62 -86 83 -164 83 -59 0 -70 -3 -109 -33z"></path> <path d="M8165 4563 c-72 -37 -105 -94 -105 -178 0 -110 84 -195 195 -195 108 0 195 89 195 201 0 108 -84 189 -196 189 -34 -1 -72 -8 -89 -17z"></path> <path d="M9265 4557 c-21 -12 -52 -40 -67 -62 -50 -72 -34 -199 32 -253 108 -89 243 -62 313 65 32 57 13 170 -37 218 -61 59 -168 73 -241 32z"></path> <path d="M9698 4548 c-67 -47 -83 -79 -83 -164 1 -65 4 -74 34 -113 81 -102 215 -108 303 -14 32 35 60 115 52 151 -24 110 -96 171 -199 172 -52 0 -67 -5 -107 -32z"></path> <path d="M11113 4551 c-62 -45 -83 -86 -83 -165 0 -89 27 -133 106 -175 68 -36 151 -25 218 29 10 8 29 36 42 62 46 90 23 179 -64 245 -39 30 -50 33 -111 33 -59 0 -73 -4 -108 -29z"></path> <path d="M11575 4562 c-53 -30 -94 -83 -101 -129 -10 -69 3 -129 38 -169 102 -116 274 -91 333 48 39 95 6 184 -95 251 -33 23 -135 22 -175 -1z" class=""></path> <path d="M12020 4563 c-101 -67 -134 -153 -94 -249 58 -141 229 -167 332 -50 77 87 46 243 -59 297 -49 24 -144 26 -179 2z" class=""></path> <path d="M12460 4563 c-48 -32 -73 -58 -91 -98 -24 -52 -24 -102 0 -156 56 -127 220 -160 317 -64 44 42 54 69 54 140 0 59 -4 76 -25 108 -42 60 -93 87 -167 86 -41 0 -72 -6 -88 -16z" class=""></path> <path d="M12888 4555 c-62 -41 -88 -89 -88 -162 0 -91 29 -141 106 -182 95 -51 218 -7 265 96 42 93 9 195 -82 251 -52 32 -150 30 -201 -3z" class=""></path> <path d="M13330 4551 c-65 -41 -85 -80 -85 -168 0 -65 3 -75 31 -110 100 -124 267 -107 338 34 30 60 16 153 -31 209 -60 70 -173 86 -253 35z" class=""></path> <path d="M13990 4556 c-77 -51 -109 -136 -84 -222 16 -57 37 -83 94 -119 93 -59 225 -13 271 93 41 95 9 194 -82 250 -51 31 -150 30 -199 -2z"></path> <path d="M14440 4557 c-67 -42 -100 -100 -100 -174 0 -139 156 -236 279 -174 84 43 120 118 106 219 -7 51 -46 102 -102 135 -46 25 -138 23 -183 -6z"></path> <path d="M15768 4559 c-139 -76 -131 -275 14 -350 122 -63 278 36 278 176 0 73 -34 132 -101 173 -48 29 -138 29 -191 1z"></path> <path d="M16210 4557 c-90 -56 -123 -153 -85 -245 56 -134 222 -163 328 -57 55 56 62 184 12 249 -57 75 -180 101 -255 53z"></path> <path d="M1603 4111 c-47 -26 -63 -41 -89 -83 -50 -79 -23 -200 59 -259 35 -25 49 -29 109 -29 70 0 99 11 144 55 75 72 71 213 -8 280 -66 57 -152 71 -215 36z"></path> <path d="M2043 4110 c-22 -11 -56 -38 -74 -61 -29 -37 -32 -47 -33 -113 0 -54 4 -80 17 -100 23 -34 54 -66 66 -66 5 0 14 -7 21 -15 9 -11 33 -15 85 -15 65 0 76 3 114 31 79 57 110 167 68 242 -57 103 -165 143 -264 97z"></path> <path d="M3380 4114 c-155 -67 -163 -281 -13 -358 20 -10 57 -16 96 -16 55 0 70 4 105 30 60 43 85 98 80 176 -3 52 -9 70 -34 101 -62 76 -153 102 -234 67z" class=""></path> <path d="M3810 4107 c-26 -13 -56 -40 -74 -64 -25 -37 -29 -51 -29 -111 0 -80 18 -114 86 -163 35 -25 49 -29 108 -29 61 0 72 3 111 33 76 58 105 148 72 225 -47 113 -168 161 -274 109z"></path> <path d="M4454 4112 c-88 -49 -114 -91 -114 -183 0 -57 4 -71 29 -106 44 -61 87 -83 161 -83 60 0 108 18 146 55 26 25 54 97 54 137 0 101 -96 198 -195 198 -28 -1 -64 -8 -81 -18z"></path> <path d="M4889 4110 c-138 -73 -146 -268 -14 -350 41 -25 165 -29 185 -5 7 8 18 15 24 15 20 0 56 49 78 106 20 52 20 55 3 106 -9 29 -28 65 -43 80 -62 66 -161 86 -233 48z"></path> <path d="M6215 4107 c-21 -12 -54 -42 -72 -65 -30 -39 -33 -50 -33 -111 0 -59 4 -73 29 -108 44 -61 87 -83 160 -83 63 0 111 17 141 49 100 105 72 263 -57 322 -56 25 -118 24 -168 -4z"></path> <path d="M6658 4108 c-109 -59 -143 -214 -65 -299 54 -58 79 -69 154 -69 58 1 74 5 108 28 73 51 108 149 79 224 -45 116 -175 171 -276 116z"></path> <path d="M7726 4108 c-45 -23 -68 -47 -96 -100 -41 -76 -12 -174 68 -235 39 -30 50 -33 109 -33 76 0 115 19 163 80 27 34 30 45 30 111 0 54 -5 81 -18 100 -61 91 -169 124 -256 77z"></path> <path d="M8165 4107 c-21 -12 -54 -42 -72 -65 -29 -38 -33 -51 -33 -103 0 -75 26 -129 82 -169 35 -26 50 -30 105 -30 92 0 135 24 181 103 92 158 -103 355 -263 264z"></path> <path d="M9285 4114 c-85 -47 -115 -95 -115 -184 0 -72 28 -124 87 -165 68 -46 189 -32 249 29 57 58 70 161 30 231 -49 86 -176 131 -251 89z"></path> <path d="M9718 4108 c-21 -11 -52 -38 -70 -61 -30 -38 -33 -46 -33 -116 0 -68 3 -80 28 -113 45 -58 87 -78 165 -78 57 1 73 5 107 28 73 51 105 140 79 218 -40 120 -172 179 -276 122z"></path> <path d="M11144 4112 c-88 -49 -114 -91 -114 -183 0 -57 4 -71 29 -106 45 -62 86 -83 164 -83 59 0 70 3 109 33 89 68 111 159 60 252 -48 89 -168 131 -248 87z"></path> <path d="M11579 4110 c-56 -29 -97 -82 -105 -135 -20 -139 57 -235 191 -235 93 0 143 34 182 124 28 61 10 148 -41 204 -52 58 -159 78 -227 42z"></path> <path d="M14009 4110 c-56 -29 -97 -82 -105 -135 -14 -94 18 -170 91 -215 48 -29 154 -28 198 3 109 77 128 196 48 298 -51 65 -159 88 -232 49z"></path> <path d="M14452 4110 c-120 -66 -147 -187 -68 -303 29 -43 85 -67 155 -67 70 0 115 22 158 78 25 33 28 45 28 114 0 70 -2 79 -31 115 -64 79 -166 106 -242 63z"></path> <path d="M15779 4110 c-56 -29 -97 -82 -105 -135 -20 -137 57 -235 187 -235 90 0 151 38 183 115 69 164 -111 336 -265 255z"></path> <path d="M16220 4110 c-111 -62 -143 -199 -69 -298 37 -49 86 -72 154 -72 134 0 211 96 191 235 -18 118 -171 193 -276 135z"></path> <path d="M2060 3661 c-92 -38 -140 -125 -124 -228 9 -64 84 -138 148 -147 106 -16 177 20 224 114 72 147 -95 324 -248 261z"></path> <path d="M2503 3662 c-57 -23 -99 -66 -118 -120 -18 -55 -19 -76 -2 -122 34 -94 89 -134 187 -134 100 0 162 46 191 143 25 85 -26 185 -116 227 -59 28 -85 29 -142 6z"></path> <path d="M2932 3654 c-116 -58 -152 -181 -82 -285 42 -64 80 -83 166 -83 79 1 112 18 162 84 23 30 26 44 26 105 0 101 -35 150 -132 188 -57 23 -79 21 -140 -9z"></path> <path d="M3425 3673 c-11 -2 -33 -11 -50 -19 -142 -67 -157 -243 -29 -340 32 -25 45 -28 108 -28 80 0 114 16 163 81 39 51 45 146 12 200 -49 79 -132 122 -204 106z"></path> <path d="M3837 3663 c-64 -22 -122 -86 -130 -145 -12 -88 15 -154 80 -204 31 -24 46 -27 108 -28 97 -1 146 30 185 117 29 62 25 104 -12 167 -53 89 -140 124 -231 93z"></path> <path d="M4478 3666 c-96 -35 -138 -93 -138 -191 0 -59 4 -71 33 -109 47 -64 79 -80 159 -80 59 0 73 4 109 29 56 40 88 97 89 158 1 130 -136 235 -252 193z"></path> <path d="M4945 3673 c-164 -37 -221 -218 -105 -334 35 -35 56 -47 90 -53 70 -11 124 2 170 41 118 101 86 274 -62 334 -44 18 -58 20 -93 12z"></path> <path d="M6237 3660 c-59 -23 -73 -34 -103 -82 -43 -68 -30 -179 28 -239 40 -42 70 -53 143 -53 66 0 75 2 114 33 131 104 97 292 -62 345 -58 20 -61 20 -120 -4z"></path> <path d="M6710 3674 c-122 -46 -170 -116 -155 -231 6 -47 13 -60 55 -102 41 -41 57 -50 97 -56 115 -15 187 28 228 138 18 47 18 51 0 103 -19 58 -59 104 -108 129 -35 17 -95 27 -117 19z"></path> <path d="M7303 3662 c-153 -62 -178 -254 -45 -347 38 -26 52 -30 111 -29 104 0 165 47 189 146 23 92 -26 185 -119 227 -53 25 -81 25 -136 3z"></path> <path d="M7740 3660 c-59 -28 -87 -55 -111 -109 -23 -53 -24 -88 -2 -143 33 -84 90 -122 182 -122 78 0 127 24 166 82 21 31 25 49 25 109 0 65 -3 75 -33 115 -58 76 -150 103 -227 68z"></path> <path d="M8220 3673 c-38 -13 -87 -37 -104 -52 -34 -30 -56 -87 -56 -148 0 -48 5 -65 32 -104 45 -66 78 -83 164 -83 65 0 74 2 113 33 85 67 108 181 52 257 -37 51 -57 68 -109 87 -43 17 -65 20 -92 10z"></path> <path d="M8638 3663 c-161 -54 -186 -249 -46 -353 28 -21 44 -24 103 -24 103 0 152 36 190 137 18 47 18 51 0 103 -21 63 -61 107 -123 134 -53 24 -62 24 -124 3z"></path> <path d="M9741 3661 c-94 -38 -139 -114 -128 -214 7 -52 36 -98 89 -137 28 -20 44 -24 103 -24 95 0 145 32 181 114 67 153 -93 324 -245 261z"></path> <path d="M10183 3662 c-153 -62 -178 -254 -45 -347 38 -26 52 -30 111 -29 104 0 165 47 189 146 23 92 -26 185 -119 227 -53 25 -81 25 -136 3z"></path> <path d="M10615 3657 c-59 -29 -86 -57 -108 -115 -22 -55 -21 -87 3 -139 39 -87 88 -118 185 -117 63 1 77 4 108 28 61 46 80 87 79 167 -1 66 -3 74 -37 115 -63 76 -150 99 -230 61z"></path> <path d="M11590 3658 c-87 -40 -128 -115 -116 -212 17 -149 200 -218 316 -119 120 103 81 287 -72 337 -64 20 -73 20 -128 -6z"></path> <path d="M12042 3662 c-114 -48 -160 -155 -113 -264 36 -84 120 -127 218 -112 36 5 56 16 94 53 39 38 48 54 54 94 11 73 -1 128 -38 168 -61 69 -142 91 -215 61z" class=""></path> <path d="M12490 3664 c-56 -20 -96 -56 -121 -111 -39 -85 -11 -181 69 -237 37 -26 51 -30 111 -30 50 0 76 5 97 19 72 47 94 87 94 173 0 61 -4 74 -30 110 -52 73 -142 103 -220 76z" class=""></path> <path d="M12910 3652 c-78 -39 -109 -87 -110 -172 0 -56 4 -70 32 -111 45 -66 78 -83 164 -83 65 0 74 2 114 34 129 102 95 291 -63 344 -63 21 -73 20 -137 -12z" class=""></path> <path d="M13400 3674 c-120 -45 -170 -116 -156 -228 6 -53 36 -101 88 -138 42 -29 165 -33 196 -5 10 9 23 17 28 17 22 0 59 65 74 129 17 70 -37 168 -113 206 -35 17 -95 27 -117 19z"></path> <path d="M14472 3661 c-145 -58 -179 -231 -65 -331 117 -103 302 -35 320 118 11 100 -33 175 -125 211 -63 25 -74 25 -130 2z"></path> <path d="M14913 3662 c-155 -63 -179 -251 -44 -347 36 -25 50 -29 110 -29 80 0 114 17 160 82 27 37 31 50 31 109 -1 88 -31 136 -109 176 -62 31 -89 33 -148 9z"></path> <path d="M15368 3666 c-96 -34 -138 -93 -138 -191 0 -121 69 -189 192 -189 59 0 73 4 110 30 134 94 107 287 -50 348 -50 19 -65 19 -114 2z"></path> <path d="M15809 3666 c-43 -15 -81 -44 -112 -83 -18 -23 -22 -40 -22 -103 0 -63 4 -81 24 -111 42 -61 85 -83 167 -83 65 0 74 2 114 34 96 76 107 210 24 294 -52 51 -136 74 -195 52z"></path> <path d="M16247 3662 c-155 -57 -185 -240 -56 -343 39 -31 48 -33 113 -33 80 0 126 22 166 80 45 67 39 178 -13 235 -60 67 -135 89 -210 61z"></path> <path d="M9499 2877 c-33 -27 -59 -77 -59 -113 0 -36 36 -97 70 -117 42 -25 108 -22 152 8 71 48 77 158 12 214 -30 27 -42 31 -92 31 -44 -1 -63 -6 -83 -23z" class=""></path> <path d="M9806 2869 c-93 -81 -34 -239 89 -239 58 0 94 21 123 70 26 46 28 80 6 123 -28 56 -62 76 -126 77 -50 0 -62 -4 -92 -31z" class=""></path> <path d="M15950 2879 c-83 -69 -80 -173 6 -230 56 -37 150 -18 188 37 38 54 26 146 -25 188 -40 34 -130 37 -169 5z"></path> <path d="M16256 2869 c-62 -54 -61 -148 2 -206 31 -29 43 -33 89 -33 48 0 56 3 92 39 50 50 62 99 35 150 -31 61 -61 80 -126 81 -50 0 -62 -4 -92 -31z"></path> <path d="M9530 2571 c-37 -10 -90 -85 -90 -127 0 -78 88 -154 163 -140 19 3 52 21 73 40 37 32 39 36 39 93 0 71 -21 108 -70 129 -36 15 -74 17 -115 5z"></path> <path d="M9830 2562 c-49 -24 -73 -73 -66 -137 4 -42 11 -55 42 -82 20 -18 52 -36 71 -39 75 -14 163 62 163 140 0 42 -53 117 -90 127 -44 12 -84 9 -120 -9z"></path> <path d="M15983 2573 c-13 -2 -38 -23 -58 -45 -28 -33 -35 -50 -35 -82 0 -54 36 -107 88 -130 53 -24 98 -16 147 27 36 31 38 36 39 93 1 110 -64 160 -181 137z"></path> <path d="M16294 2573 c-12 -2 -34 -18 -50 -34 -26 -27 -29 -37 -29 -96 0 -63 1 -66 39 -99 21 -18 55 -37 74 -40 74 -14 162 65 162 146 0 36 -56 112 -90 121 -27 8 -73 9 -106 2z"></path> <path d="M1558 2246 c-106 -46 -103 -208 5 -254 38 -16 75 -14 117 6 38 19 80 82 80 122 0 14 -11 43 -23 65 -36 64 -113 91 -179 61z"></path> <path d="M1862 2240 c-71 -44 -92 -126 -47 -193 44 -64 100 -81 172 -52 56 23 76 57 76 125 0 65 -19 99 -71 124 -44 22 -90 20 -130 -4z"></path> <path d="M3445 2246 c-38 -17 -59 -41 -76 -88 -33 -94 66 -199 165 -174 38 9 82 52 100 97 16 40 16 43 -6 88 -39 79 -110 109 -183 77z" class=""></path> <path d="M3755 2244 c-99 -50 -100 -195 -3 -245 45 -23 74 -24 121 -4 55 23 77 58 77 125 0 67 -22 102 -77 125 -44 19 -79 18 -118 -1z"></path> <path d="M4585 2244 c-49 -25 -70 -62 -70 -124 0 -64 21 -99 73 -124 67 -32 133 -13 177 51 32 49 33 97 0 145 -43 63 -115 84 -180 52z"></path> <path d="M4894 2234 c-36 -23 -74 -82 -74 -114 0 -32 38 -91 74 -114 45 -29 78 -32 127 -12 45 19 65 42 78 92 18 69 -12 133 -78 160 -49 20 -82 17 -127 -12z"></path> <path d="M5213 2240 c-47 -28 -65 -62 -65 -121 1 -58 19 -91 65 -119 120 -74 267 84 182 196 -48 62 -122 81 -182 44z"></path> <path d="M5535 2247 c-37 -22 -64 -57 -76 -96 -23 -77 49 -169 132 -171 34 0 90 23 111 47 42 47 39 143 -7 189 -42 42 -117 56 -160 31z"></path> <path d="M7463 2244 c-78 -34 -102 -151 -44 -217 19 -23 75 -47 108 -47 48 0 103 38 125 86 52 119 -67 232 -189 178z"></path> <path d="M7774 2241 c-97 -59 -98 -182 -2 -241 54 -33 114 -23 171 29 24 22 27 32 27 87 0 71 -21 107 -76 130 -46 19 -83 17 -120 -5z"></path> <path d="M8093 2246 c-65 -36 -93 -101 -71 -164 16 -49 35 -71 77 -88 77 -32 145 -4 184 78 21 44 21 49 0 97 -31 73 -128 111 -190 77z" class=""></path> <path d="M8405 2244 c-45 -23 -75 -75 -75 -130 0 -40 5 -51 38 -85 21 -21 50 -41 65 -44 45 -12 98 4 134 40 30 30 33 38 33 93 0 44 -5 66 -20 85 -42 54 -115 71 -175 41z" class=""></path> <path d="M8728 2247 c-41 -19 -64 -44 -78 -88 -22 -64 9 -132 73 -164 61 -31 125 -12 173 50 81 106 -44 256 -168 202z"></path> <path d="M9205 2245 c-63 -27 -95 -98 -75 -162 16 -48 36 -71 79 -89 65 -27 120 -11 166 51 48 62 31 143 -39 189 -44 28 -84 32 -131 11z"></path> <path d="M9523 2245 c-105 -47 -103 -205 4 -250 43 -18 72 -19 111 -2 52 21 77 63 77 127 0 43 -6 63 -23 85 -41 52 -106 67 -169 40z"></path> <path d="M9838 2246 c-77 -34 -102 -156 -44 -219 82 -89 227 -40 243 83 13 98 -105 178 -199 136z" class=""></path> <path d="M10147 2243 c-39 -20 -77 -81 -77 -123 0 -44 38 -103 81 -124 59 -29 118 -16 168 38 34 37 36 129 3 171 -41 52 -116 69 -175 38z"></path> <path d="M10468 2246 c-106 -46 -103 -208 5 -254 66 -28 137 -2 174 64 30 51 29 91 -2 137 -40 58 -115 81 -177 53z"></path> <path d="M10975 2241 c-56 -34 -70 -58 -70 -121 0 -64 20 -96 77 -126 83 -43 198 31 198 126 0 99 -123 172 -205 121z"></path> <path d="M11293 2245 c-105 -47 -103 -205 4 -250 64 -27 124 -12 165 40 19 24 23 41 22 92 -1 52 -5 66 -25 86 -49 47 -106 58 -166 32z" class=""></path> <path d="M11609 2247 c-38 -18 -59 -43 -71 -83 -44 -161 154 -253 247 -116 15 22 25 51 25 72 0 96 -113 167 -201 127z"></path> <path d="M11918 2244 c-71 -38 -96 -137 -50 -201 56 -79 165 -83 224 -8 17 22 23 42 23 85 0 43 -6 63 -23 85 -41 52 -117 69 -174 39z"></path> <path d="M12685 2241 c-47 -28 -65 -63 -65 -124 0 -40 6 -61 21 -81 83 -105 249 -48 249 86 0 102 -120 172 -205 119z"></path> <path d="M13004 2241 c-78 -47 -100 -131 -51 -195 48 -63 102 -79 168 -52 43 18 63 40 80 89 22 63 -13 135 -80 163 -45 19 -80 18 -117 -5z"></path> <path d="M13314 2241 c-49 -30 -64 -59 -64 -122 0 -63 20 -98 70 -124 88 -45 200 24 200 122 0 107 -118 177 -206 124z"></path> <path d="M13640 2247 c-37 -18 -69 -55 -81 -97 -16 -52 15 -117 69 -148 46 -26 76 -28 123 -8 45 19 65 42 78 91 18 68 -14 134 -77 161 -41 17 -78 17 -112 1z"></path> <path d="M13944 2241 c-50 -30 -64 -58 -64 -126 0 -54 3 -64 28 -87 74 -69 156 -64 216 15 86 113 -59 272 -180 198z"></path> <path d="M15028 2246 c-48 -21 -73 -64 -73 -126 0 -64 21 -99 73 -124 92 -44 197 22 197 124 0 101 -104 168 -197 126z"></path> <path d="M15343 2244 c-49 -21 -87 -84 -80 -134 9 -71 73 -130 142 -130 36 0 82 23 107 55 30 39 32 127 3 167 -40 53 -109 70 -172 42z"></path> <path d="M15658 2246 c-77 -34 -102 -156 -44 -219 86 -94 241 -34 241 93 0 101 -104 168 -197 126z"></path> <path d="M15964 2241 c-41 -25 -74 -80 -74 -122 0 -42 40 -103 80 -124 57 -29 135 -10 174 42 29 39 27 131 -3 169 -42 54 -121 69 -177 35z"></path> <path d="M16290 2247 c-14 -7 -37 -22 -50 -35 -22 -20 -25 -32 -25 -91 0 -60 3 -72 25 -93 74 -71 178 -59 227 27 28 50 29 80 0 129 -37 67 -112 93 -177 63z"></path> <path d="M1564 1924 c-62 -30 -79 -59 -79 -130 0 -59 3 -67 33 -96 30 -31 37 -33 98 -33 65 0 67 1 100 39 45 52 52 93 25 149 -15 32 -33 49 -65 65 -51 26 -70 27 -112 6z"></path> <path d="M1872 1924 c-95 -49 -109 -168 -27 -236 73 -62 204 -13 219 81 18 115 -94 205 -192 155z"></path> <path d="M2497 1919 c-94 -50 -104 -170 -19 -234 19 -14 43 -19 84 -20 51 0 60 3 92 34 34 33 36 39 36 98 0 56 -3 66 -30 93 -52 54 -100 62 -163 29z" class=""></path> <path d="M2793 1911 c-93 -67 -70 -212 38 -241 81 -22 156 19 180 99 10 34 9 45 -10 83 -42 87 -133 113 -208 59z" class=""></path> <path d="M3445 1923 c-47 -24 -61 -40 -75 -83 -10 -31 -10 -48 0 -83 33 -121 209 -130 258 -14 29 67 0 142 -68 178 -42 23 -75 23 -115 2z" class=""></path> <path d="M3742 1910 c-52 -37 -62 -57 -62 -117 0 -40 6 -55 34 -88 33 -39 35 -40 101 -40 64 0 68 1 101 37 31 34 34 43 34 95 -1 65 -21 98 -77 127 -47 24 -85 20 -131 -14z" class=""></path> <path d="M4263 1911 c-78 -56 -87 -143 -22 -213 27 -31 34 -33 92 -33 76 0 108 21 133 84 26 68 -3 138 -74 175 -46 24 -84 20 -129 -13z" class=""></path> <path d="M4600 1924 c-60 -26 -80 -58 -80 -129 0 -56 3 -64 33 -92 60 -57 141 -56 201 4 32 32 36 42 36 86 0 59 -29 105 -83 131 -43 20 -62 20 -107 0z" class=""></path> <path d="M5534 1919 c-29 -15 -48 -35 -63 -64 -26 -52 -26 -66 -2 -113 32 -63 55 -77 126 -77 56 0 67 3 93 28 66 63 58 157 -17 215 -50 37 -80 40 -137 11z"></path> <path d="M5854 1924 c-59 -29 -76 -56 -77 -121 0 -75 28 -118 87 -134 76 -21 140 5 170 69 34 70 7 146 -65 182 -46 24 -73 25 -115 4z"></path> <path d="M7152 1924 c-119 -61 -101 -235 26 -260 108 -21 182 57 163 172 -12 76 -117 124 -189 88z"></path> <path d="M7449 1908 c-77 -59 -83 -151 -16 -216 25 -24 36 -27 94 -27 63 0 66 1 99 39 45 52 52 93 25 148 -23 48 -82 88 -130 88 -18 0 -46 -13 -72 -32z"></path> <path d="M7782 1923 c-71 -35 -103 -129 -66 -191 28 -48 64 -67 126 -67 51 0 60 3 91 33 57 56 58 146 1 199 -49 45 -97 54 -152 26z" class=""></path> <path d="M9518 1920 c-42 -23 -78 -82 -78 -129 0 -45 57 -113 103 -124 82 -20 159 23 172 96 23 120 -94 213 -197 157z" class=""></path> <path d="M9844 1924 c-60 -29 -78 -59 -79 -124 0 -70 23 -108 79 -129 62 -24 123 -6 163 47 39 51 42 88 12 142 -23 41 -82 80 -120 80 -13 0 -38 -7 -55 -16z"></path> <path d="M11919 1920 c-44 -23 -79 -79 -79 -125 0 -49 54 -117 103 -128 112 -27 192 52 170 165 -17 83 -119 130 -194 88z"></path> <path d="M12244 1924 c-60 -29 -78 -59 -79 -124 0 -70 23 -108 79 -129 62 -24 123 -6 163 47 39 51 42 88 13 141 -23 39 -85 81 -122 81 -13 0 -37 -7 -54 -16z"></path> <path d="M12693 1922 c-53 -29 -73 -63 -73 -126 0 -50 4 -61 33 -92 58 -64 164 -57 212 14 50 73 23 167 -58 206 -44 20 -73 20 -114 -2z"></path> <path d="M13014 1926 c-37 -16 -69 -55 -84 -101 -9 -29 -8 -41 8 -79 27 -60 62 -81 134 -81 49 1 62 5 86 28 76 72 58 182 -36 231 -37 19 -67 20 -108 2z"></path> <path d="M13950 1921 c-54 -29 -73 -61 -73 -126 0 -52 3 -60 37 -93 33 -34 41 -37 94 -37 62 0 97 18 126 67 38 62 4 158 -67 192 -45 21 -74 20 -117 -3z"></path> <path d="M14251 1909 c-79 -57 -89 -133 -27 -205 33 -38 36 -39 99 -39 58 0 69 3 94 27 71 69 55 181 -34 231 -46 25 -84 21 -132 -14z"></path> <path d="M14708 1919 c-42 -22 -78 -81 -78 -128 0 -45 57 -113 103 -124 85 -20 161 23 172 96 10 66 -5 107 -54 144 -50 38 -88 42 -143 12z"></path> <path d="M15034 1924 c-60 -29 -79 -59 -79 -123 0 -69 21 -106 73 -128 73 -31 151 -2 188 69 32 62 1 144 -67 178 -46 24 -73 25 -115 4z"></path> <path d="M15968 1920 c-92 -50 -103 -173 -20 -235 38 -28 130 -28 169 1 38 28 57 86 46 143 -16 86 -117 133 -195 91z"></path> <path d="M16294 1924 c-62 -30 -79 -59 -79 -129 0 -73 22 -106 82 -126 58 -19 118 -4 153 39 42 52 48 95 20 147 -24 44 -83 85 -122 85 -13 0 -37 -7 -54 -16z"></path> <path d="M1524 1576 c-38 -33 -39 -35 -39 -100 0 -65 1 -69 37 -102 33 -29 45 -34 89 -34 68 0 112 27 134 82 22 57 13 99 -34 148 -35 37 -42 40 -93 40 -48 0 -60 -4 -94 -34z"></path> <path d="M1855 1590 c-83 -55 -86 -160 -6 -229 36 -32 123 -29 167 4 65 50 68 148 6 209 -31 32 -41 36 -86 36 -34 0 -61 -7 -81 -20z"></path> <path d="M2486 1591 c-65 -43 -85 -123 -45 -187 31 -51 56 -64 120 -64 51 0 59 3 92 37 35 34 37 40 37 97 -1 64 -11 85 -60 119 -33 23 -107 22 -144 -2z" class=""></path> <path d="M2787 1580 c-67 -59 -67 -151 0 -211 28 -24 43 -29 84 -29 61 0 107 31 134 90 17 38 17 42 1 85 -26 66 -65 95 -131 95 -46 0 -60 -5 -88 -30z" class=""></path> <path d="M3421 1585 c-34 -29 -61 -78 -61 -110 0 -38 27 -89 59 -112 41 -31 127 -32 165 -2 108 85 51 249 -87 249 -34 0 -53 -6 -76 -25z" class=""></path> <path d="M3721 1569 c-38 -38 -41 -45 -41 -95 0 -48 4 -58 36 -94 35 -39 39 -40 98 -40 59 0 65 2 99 37 34 34 37 41 37 96 0 56 -2 62 -39 98 -36 36 -43 39 -94 39 -51 0 -58 -3 -96 -41z"></path> <path d="M4259 1586 c-76 -52 -82 -145 -14 -213 30 -30 38 -33 93 -33 57 0 61 2 96 40 19 22 38 51 42 66 10 38 -15 101 -53 135 -45 39 -111 41 -164 5z"></path> <path d="M4560 1574 c-39 -35 -40 -38 -40 -100 0 -59 2 -65 37 -99 33 -32 41 -35 98 -35 54 0 64 3 87 28 36 39 48 65 48 109 0 74 -63 133 -142 133 -41 0 -54 -5 -88 -36z"></path> <path d="M4878 1577 c-21 -19 -41 -50 -48 -74 -11 -37 -10 -45 10 -85 28 -57 63 -78 132 -78 48 0 57 4 84 33 47 50 60 89 44 138 -21 61 -72 99 -135 99 -44 0 -56 -5 -87 -33z"></path> <path d="M5210 1593 c-49 -34 -59 -55 -60 -119 0 -56 3 -64 35 -97 33 -34 41 -37 91 -37 63 0 94 16 124 65 39 63 19 143 -46 186 -37 24 -111 25 -144 2z"></path> <path d="M5517 1589 c-40 -30 -70 -93 -62 -130 18 -83 61 -119 139 -119 47 0 60 4 89 29 67 60 67 155 -2 211 -45 38 -120 42 -164 9z"></path> <path d="M5840 1593 c-38 -26 -58 -55 -63 -89 -8 -51 9 -106 43 -136 25 -24 39 -28 86 -28 60 0 93 18 126 68 37 55 14 142 -49 183 -36 24 -110 25 -143 2z"></path> <path d="M7439 1580 c-67 -55 -70 -140 -6 -207 28 -30 36 -33 91 -33 70 1 101 20 130 82 24 54 13 101 -35 149 -35 35 -44 39 -92 39 -43 0 -59 -5 -88 -30z"></path> <path d="M7766 1591 c-65 -43 -85 -123 -45 -187 31 -51 56 -64 120 -64 51 0 59 3 92 35 35 34 37 40 37 98 -1 65 -11 86 -60 120 -33 23 -107 22 -144 -2z"></path> <path d="M8069 1580 c-49 -40 -66 -100 -44 -153 26 -63 60 -86 127 -87 67 0 103 24 133 89 17 39 17 43 1 85 -36 95 -143 128 -217 66z"></path> <path d="M8390 1589 c-42 -35 -60 -71 -60 -120 0 -39 5 -52 38 -87 37 -40 41 -42 99 -42 55 0 62 3 96 37 37 36 42 52 38 128 -2 21 -14 42 -41 68 -35 33 -44 37 -92 37 -39 -1 -60 -6 -78 -21z"></path> <path d="M9489 1570 c-64 -67 -65 -134 -2 -195 33 -32 41 -35 95 -35 52 0 62 3 95 34 35 32 38 38 38 93 0 92 -50 143 -139 143 -44 0 -53 -4 -87 -40z" class=""></path> <path d="M9808 1577 c-62 -57 -63 -153 -2 -207 30 -26 42 -30 92 -30 64 1 98 21 126 77 21 42 20 75 -4 120 -27 51 -65 73 -126 73 -43 0 -55 -5 -86 -33z"></path> <path d="M10970 1593 c-84 -58 -92 -170 -16 -228 26 -20 45 -25 88 -25 59 0 85 15 120 68 36 54 10 149 -50 185 -39 22 -110 22 -142 0z"></path> <path d="M11259 1570 c-48 -50 -58 -96 -34 -149 25 -58 63 -81 129 -81 73 0 122 39 131 105 15 97 -41 165 -135 165 -49 0 -56 -3 -91 -40z"></path> <path d="M11603 1597 c-46 -26 -68 -67 -68 -130 0 -55 3 -61 38 -93 33 -30 43 -34 95 -34 50 0 62 4 90 29 35 32 52 68 52 107 0 38 -35 97 -68 117 -34 20 -107 22 -139 4z"></path> <path d="M11907 1591 c-33 -21 -67 -81 -67 -116 0 -35 26 -85 59 -112 20 -17 39 -22 84 -23 51 0 61 3 94 33 33 31 36 38 37 93 1 65 -13 94 -61 125 -37 25 -109 25 -146 0z"></path> <path d="M12208 1577 c-62 -57 -63 -153 -2 -207 30 -26 42 -30 92 -30 64 1 98 21 126 77 24 47 20 85 -14 131 -37 52 -57 62 -117 62 -41 0 -55 -5 -85 -33z"></path> <path d="M12660 1574 c-39 -35 -40 -39 -40 -98 0 -59 2 -65 37 -99 34 -35 40 -37 99 -37 62 0 63 1 98 44 29 35 36 51 36 87 0 81 -58 139 -139 139 -44 0 -56 -5 -91 -36z"></path> <path d="M12988 1585 c-24 -16 -42 -40 -54 -70 -16 -43 -16 -47 1 -86 30 -64 66 -89 134 -89 48 0 61 4 87 28 67 61 66 152 -3 213 -45 39 -111 41 -165 4z"></path> <path d="M13940 1593 c-79 -54 -89 -153 -23 -219 30 -31 39 -34 91 -34 65 0 90 13 121 64 57 91 -9 206 -119 206 -27 0 -56 -7 -70 -17z"></path> <path d="M14246 1589 c-29 -23 -66 -88 -66 -116 1 -33 36 -94 66 -114 19 -12 47 -19 82 -19 46 0 57 4 90 34 36 33 37 37 37 101 0 66 -1 68 -39 101 -34 29 -47 34 -91 34 -38 0 -60 -6 -79 -21z"></path> <path d="M14697 1590 c-35 -28 -67 -82 -67 -114 0 -36 26 -86 59 -113 20 -17 39 -22 83 -23 50 0 62 4 92 31 63 55 59 163 -8 214 -43 33 -121 35 -159 5z"></path> <path d="M14998 1574 c-62 -61 -62 -151 -2 -204 30 -26 43 -30 90 -30 41 0 63 5 82 21 63 49 78 110 43 177 -25 49 -67 72 -128 72 -44 0 -54 -4 -85 -36z"></path> <path d="M15957 1591 c-63 -41 -86 -128 -49 -183 33 -51 66 -68 126 -68 50 0 60 4 93 33 33 31 36 38 37 93 1 65 -17 99 -66 128 -36 22 -106 20 -141 -3z"></path> <path d="M16255 1576 c-39 -33 -40 -35 -40 -101 0 -64 1 -68 37 -101 34 -31 43 -34 95 -34 65 1 98 21 127 77 22 44 20 77 -8 121 -33 53 -66 72 -123 72 -40 0 -55 -6 -88 -34z"></path> <path d="M1574 1283 c-35 -7 -82 -58 -89 -97 -25 -129 96 -220 203 -154 45 28 76 94 66 144 -8 44 -63 104 -95 104 -13 0 -33 2 -44 4 -11 2 -29 2 -41 -1z"></path> <path d="M1885 1281 c-40 -8 -95 -81 -95 -127 0 -48 23 -89 67 -119 44 -29 90 -32 135 -9 54 28 67 52 68 125 0 61 -2 67 -32 96 -35 32 -89 45 -143 34z"></path> <path d="M2185 1276 c-97 -44 -108 -174 -21 -238 48 -35 104 -37 153 -7 35 22 73 83 73 119 0 26 -32 90 -56 112 -27 23 -111 32 -149 14z"></path> <path d="M2520 1281 c-83 -20 -122 -113 -83 -196 37 -78 132 -98 205 -42 42 32 43 34 46 100 3 63 1 68 -30 101 -35 36 -86 50 -138 37z"></path> <path d="M2825 1283 c-32 -8 -71 -51 -85 -93 -15 -44 -3 -86 34 -128 52 -58 113 -66 173 -23 56 40 79 92 64 143 -20 64 -58 98 -116 103 -27 2 -59 1 -70 -2z"></path> <path d="M3145 1282 c-84 -29 -123 -134 -76 -206 49 -74 131 -87 203 -33 43 33 43 33 46 103 3 67 2 70 -30 102 -35 33 -100 49 -143 34z"></path> <path d="M3456 1280 c-41 -13 -71 -44 -86 -90 -38 -116 95 -223 198 -160 85 52 95 175 18 231 -27 21 -93 30 -130 19z"></path> <path d="M3775 1282 c-58 -20 -95 -71 -95 -132 0 -110 115 -176 206 -119 50 30 64 56 64 117 0 81 -37 124 -115 135 -22 3 -49 2 -60 -1z"></path> <path d="M4300 1283 c-56 -11 -100 -69 -100 -133 0 -75 64 -140 138 -140 89 0 161 98 133 178 -18 50 -47 80 -90 92 -37 10 -40 10 -81 3z"></path> <path d="M4610 1280 c-19 -5 -47 -23 -63 -40 -25 -29 -28 -37 -25 -98 3 -65 4 -67 46 -99 96 -73 222 -12 222 107 0 95 -80 153 -180 130z"></path> <path d="M8104 1280 c-36 -11 -66 -42 -84 -88 -10 -26 -10 -41 0 -78 25 -90 128 -131 206 -83 32 19 74 90 74 121 -1 25 -36 87 -60 106 -30 24 -94 34 -136 22z"></path> <path d="M8430 1282 c-60 -16 -100 -68 -100 -131 0 -109 115 -177 206 -120 51 31 64 56 64 121 0 52 -4 62 -32 92 -35 36 -88 51 -138 38z"></path> <path d="M8734 1280 c-39 -12 -68 -45 -84 -94 -18 -56 2 -110 54 -147 74 -55 160 -29 206 62 53 102 -58 215 -176 179z"></path> <path d="M9532 1279 c-43 -13 -92 -80 -92 -127 0 -68 72 -142 138 -142 42 0 92 25 117 58 14 20 20 43 20 84 0 53 -3 61 -35 92 -39 38 -93 51 -148 35z" class=""></path> <path d="M9859 1283 c-14 -2 -41 -20 -60 -39 -30 -31 -34 -41 -34 -92 0 -86 53 -142 135 -142 68 0 140 73 140 142 0 35 -47 115 -73 123 -25 7 -83 12 -108 8z"></path> <path d="M10999 1283 c-14 -2 -41 -20 -60 -39 -31 -32 -34 -40 -34 -96 0 -59 1 -61 45 -99 50 -44 98 -51 150 -24 42 22 80 82 80 126 0 32 -40 106 -67 122 -14 8 -87 15 -114 10z"></path> <path d="M11932 1279 c-43 -13 -92 -80 -92 -127 0 -100 122 -174 207 -126 49 29 68 63 68 126 0 53 -3 61 -35 92 -39 38 -93 51 -148 35z"></path> <path d="M12259 1283 c-14 -2 -41 -20 -60 -39 -31 -32 -34 -41 -34 -92 1 -64 19 -97 68 -126 85 -48 207 26 207 126 0 50 -49 114 -97 127 -21 6 -42 10 -48 9 -5 0 -22 -3 -36 -5z"></path> <path d="M12703 1279 c-17 -5 -43 -23 -57 -40 -21 -25 -26 -41 -26 -88 0 -64 13 -89 64 -120 91 -56 206 9 206 117 0 98 -89 160 -187 131z"></path> <path d="M13030 1283 c-36 -7 -72 -39 -92 -81 -22 -48 -22 -57 3 -106 27 -54 62 -78 118 -84 95 -8 171 88 141 179 -14 42 -60 89 -88 89 -9 0 -26 2 -37 4 -11 2 -31 2 -45 -1z"></path> <path d="M13969 1283 c-14 -2 -41 -19 -59 -38 -30 -31 -33 -40 -33 -95 0 -66 18 -96 77 -127 83 -43 196 30 196 127 0 89 -82 149 -181 133z"></path> <path d="M14277 1280 c-37 -11 -72 -50 -87 -95 -10 -31 -9 -44 5 -81 56 -147 265 -110 265 46 0 43 -24 96 -52 114 -30 19 -95 28 -131 16z"></path> <path d="M14732 1280 c-40 -9 -66 -31 -86 -75 -20 -42 -20 -68 0 -112 60 -126 243 -101 261 37 14 104 -69 175 -175 150z"></path> <path d="M15049 1283 c-14 -2 -41 -20 -60 -39 -30 -31 -34 -41 -34 -92 0 -66 21 -101 73 -126 67 -32 140 -9 181 58 30 48 27 95 -8 144 -16 22 -33 42 -38 45 -14 8 -87 15 -114 10z"></path> <path d="M15985 1282 c-41 -10 -95 -82 -95 -129 0 -98 114 -172 198 -129 57 30 75 61 75 127 0 56 -2 63 -34 94 -36 35 -88 49 -144 37z"></path> <path d="M16304 1284 c-12 -3 -36 -21 -55 -40 -31 -32 -34 -41 -34 -92 0 -41 5 -64 20 -84 45 -60 120 -75 182 -37 35 22 73 83 73 119 0 30 -37 97 -63 114 -24 16 -90 27 -123 20z"></path> <path d="M1881 958 c-20 -7 -45 -28 -62 -51 -107 -147 110 -305 222 -163 30 38 30 126 2 164 -36 48 -103 69 -162 50z"></path> <path d="M2190 957 c-100 -47 -115 -168 -31 -238 47 -38 89 -46 136 -23 45 21 95 87 95 125 0 95 -118 176 -200 136z"></path> <path d="M3134 955 c-54 -24 -84 -69 -84 -127 0 -60 25 -100 80 -128 49 -25 71 -25 115 -1 57 31 75 61 75 129 0 69 -21 104 -77 127 -43 18 -68 18 -109 0z"></path> <path d="M3454 957 c-46 -18 -72 -48 -84 -97 -16 -59 5 -109 62 -150 49 -36 86 -38 139 -8 91 51 105 163 29 226 -22 18 -80 42 -99 41 -9 0 -30 -6 -47 -12z"></path> <path d="M4595 951 c-54 -24 -76 -60 -77 -121 0 -70 27 -111 91 -134 48 -17 50 -17 94 3 90 41 117 145 55 213 -29 32 -81 58 -112 58 -6 0 -29 -9 -51 -19z"></path> <path d="M4913 954 c-38 -16 -81 -70 -88 -110 -10 -48 31 -115 85 -141 55 -26 95 -22 141 17 88 72 66 200 -41 237 -43 16 -56 15 -97 -3z"></path> <path d="M5231 956 c-57 -21 -81 -58 -81 -127 0 -67 18 -100 68 -127 87 -46 202 24 202 124 0 57 -43 116 -97 132 -47 14 -48 14 -92 -2z"></path> <path d="M5551 956 c-19 -7 -49 -29 -65 -50 -59 -73 -31 -167 62 -208 42 -19 46 -19 87 -4 52 20 80 50 93 99 18 66 -18 134 -87 163 -39 16 -45 16 -90 0z"></path> <path d="M5851 952 c-54 -27 -75 -64 -75 -126 1 -63 26 -102 77 -124 66 -29 135 -7 175 54 48 73 9 177 -75 202 -51 15 -61 15 -102 -6z"></path> <path d="M7161 958 c-78 -26 -115 -136 -69 -204 58 -85 167 -89 230 -9 29 37 29 125 0 164 -35 47 -102 68 -161 49z"></path> <path d="M7471 954 c-45 -20 -59 -35 -76 -85 -25 -71 6 -137 81 -170 44 -20 83 -15 130 16 35 23 67 92 60 128 -9 43 -51 95 -93 112 -43 18 -58 18 -102 -1z"></path> <path d="M7791 957 c-20 -6 -45 -26 -62 -50 -54 -75 -29 -168 56 -207 53 -24 60 -24 107 -2 59 28 78 60 78 130 0 73 -27 112 -88 130 -45 14 -45 14 -91 -1z"></path> <path d="M8104 957 c-42 -16 -62 -38 -79 -88 -20 -56 -4 -110 44 -150 44 -36 108 -40 159 -9 41 25 76 97 66 137 -10 43 -51 92 -91 108 -41 17 -57 18 -99 2z"></path> <path d="M8421 957 c-47 -15 -91 -78 -91 -130 0 -98 94 -165 183 -130 65 25 86 57 86 128 0 70 -21 104 -81 129 -42 18 -50 18 -97 3z"></path> <path d="M9845 956 c-16 -8 -41 -26 -55 -41 -21 -23 -25 -36 -25 -92 0 -60 2 -67 32 -93 47 -42 95 -53 145 -33 47 19 98 83 98 124 0 96 -112 173 -195 135z"></path> <path d="M10161 956 c-18 -6 -45 -25 -58 -43 -65 -85 -23 -191 89 -226 27 -9 86 12 120 43 29 27 32 34 32 95 0 55 -4 69 -25 91 -26 28 -81 55 -108 53 -9 -1 -31 -7 -50 -13z"></path> <path d="M10483 958 c-17 -6 -44 -24 -60 -40 -25 -26 -28 -37 -28 -93 0 -71 14 -94 78 -126 31 -16 44 -18 76 -9 69 18 121 80 121 143 0 35 -54 104 -96 122 -41 17 -46 17 -91 3z"></path> <path d="M10988 957 c-40 -18 -66 -46 -78 -83 -39 -118 74 -225 181 -171 54 27 89 77 89 127 0 53 -45 112 -97 128 -48 14 -60 14 -95 -1z"></path> <path d="M11305 955 c-46 -21 -63 -39 -80 -78 -22 -52 -19 -79 14 -124 56 -77 143 -87 214 -23 30 26 32 33 32 93 0 56 -4 69 -25 92 -26 28 -81 55 -109 55 -9 -1 -29 -7 -46 -15z"></path> <path d="M11623 958 c-17 -6 -44 -23 -59 -39 -23 -24 -27 -37 -28 -88 -1 -74 21 -108 87 -135 l45 -19 49 24 c54 27 93 77 93 121 0 50 -35 104 -83 127 -48 23 -57 24 -104 9z"></path> <path d="M11935 958 c-16 -6 -36 -15 -43 -21 -22 -17 -52 -84 -52 -115 0 -43 39 -94 90 -119 39 -20 50 -21 84 -12 129 36 141 213 17 265 -39 16 -54 16 -96 2z"></path> <path d="M12245 956 c-16 -8 -41 -26 -55 -41 -21 -23 -25 -36 -24 -91 0 -48 5 -69 20 -85 44 -49 118 -63 174 -34 38 19 80 82 80 117 0 95 -112 172 -195 134z"></path> <path d="M12700 953 c-56 -24 -79 -59 -80 -121 0 -72 21 -106 83 -132 48 -21 51 -21 94 -5 121 46 125 211 6 260 -43 18 -58 18 -103 -2z"></path> <path d="M13010 952 c-35 -17 -76 -69 -86 -108 -8 -30 28 -109 59 -129 42 -27 80 -34 121 -20 79 27 118 97 95 169 -15 48 -37 72 -84 92 -43 18 -62 17 -105 -4z"></path> <path d="M13965 958 c-128 -45 -119 -232 14 -268 82 -22 171 49 171 137 0 56 -44 115 -97 131 -47 14 -48 14 -88 0z"></path> <path d="M14280 957 c-94 -44 -123 -132 -68 -210 51 -72 159 -78 220 -10 27 30 37 92 21 137 -14 42 -31 59 -82 81 -39 17 -57 18 -91 2z"></path> <path d="M15043 958 c-17 -6 -44 -24 -60 -40 -25 -26 -28 -37 -28 -93 0 -60 2 -67 33 -94 18 -17 49 -35 70 -40 31 -9 44 -7 82 12 114 56 119 188 10 245 -48 24 -59 25 -107 10z"></path> <path d="M15365 959 c-58 -18 -105 -79 -105 -137 0 -42 50 -106 98 -125 50 -20 98 -9 145 33 30 27 32 32 31 94 -1 74 -20 106 -83 132 -38 16 -44 16 -86 3z"></path> <path d="M15673 958 c-17 -6 -44 -24 -60 -40 -25 -26 -28 -36 -27 -94 1 -75 20 -103 89 -130 41 -15 45 -15 87 4 78 34 112 104 84 175 -27 70 -104 108 -173 85z"></path> <path d="M15980 955 c-73 -26 -110 -118 -75 -185 17 -33 69 -75 103 -83 57 -14 135 34 153 95 23 79 -14 151 -90 177 -40 13 -45 13 -91 -4z"></path> <path d="M16295 955 c-16 -7 -41 -25 -55 -40 -21 -23 -25 -36 -25 -90 0 -74 20 -104 90 -131 41 -15 45 -15 87 4 130 57 126 207 -7 259 -38 15 -53 14 -90 -2z"></path> </g> </svg>